PathFileType	4	(X/Y/Z)	C:\Users\Balu\Nextcloud\Documents\MA\Daten\C3D\P03\2016 - pre\Static01\marker_experimental.trc
DataRate	CameraRate	NumFrames	NumMarkers	Units	OrigDataRate	OrigDataStartFrame	OrigNumFrames
150.000000	150.000000	4	104	mm	150.000000	56	150
Frame#	Time	LFHD			LBHD			RFHD			RBHD			C7			T10			CLAV			STRN			RBAK			LSHO			LUPA			LELB			LFRA			LWRB			LWRA			LFIN			RSHO			RUPA			RELB			RFRA			RWRB			RWRA			RFIN			SACR			LASI			RASI			LT1			LT2			LT3			LS1			LS2			LS3			LHEE			LTOE			RT1			RT2			RT3			RS1			RS2			RS3			RHEE			RTOE			LKNE			LKNM			LANK			LANM			RKNM			RKNE			RANM			RANK			SACO			SACA			SACL			SACP			LKJC			RKJC			LAJC			RAJC			LMMA			RMMA			LTHI			RTHI			LTIB			RTIB			funktRKJC			funktLKJC			funktRHIP			funktLHIP			LHJC			RHJC			LPelvisAngles			RPelvisAngles			LFootProgressAngles			RFootProgressAngles			LHipAngles			RHipAngles			LKneeAngles			RKneeAngles			LAnkleAngles			RAnkleAngles			LFFootAngles			RFFootAngles			LAbsAnkleAngle			RAbsAnkleAngle			RNeckAngles			LNeckAngles			RSpineAngles			LSpineAngles			LShoulderAngles			LElbowAngles			LWristAngles			RShoulderAngles			RElbowAngles			RWristAngles			RThoraxAngles			LThoraxAngles			RHeadAngles			LHeadAngles			LNormalisedGRF			RNormalisedGRF			LGroundReactionForce			RGroundReactionForce			LGRF			RGRF			
		X1	Y1	Z1	X2	Y2	Z2	X3	Y3	Z3	X4	Y4	Z4	X5	Y5	Z5	X6	Y6	Z6	X7	Y7	Z7	X8	Y8	Z8	X9	Y9	Z9	X10	Y10	Z10	X11	Y11	Z11	X12	Y12	Z12	X13	Y13	Z13	X14	Y14	Z14	X15	Y15	Z15	X16	Y16	Z16	X17	Y17	Z17	X18	Y18	Z18	X19	Y19	Z19	X20	Y20	Z20	X21	Y21	Z21	X22	Y22	Z22	X23	Y23	Z23	X24	Y24	Z24	X25	Y25	Z25	X26	Y26	Z26	X27	Y27	Z27	X28	Y28	Z28	X29	Y29	Z29	X30	Y30	Z30	X31	Y31	Z31	X32	Y32	Z32	X33	Y33	Z33	X34	Y34	Z34	X35	Y35	Z35	X36	Y36	Z36	X37	Y37	Z37	X38	Y38	Z38	X39	Y39	Z39	X40	Y40	Z40	X41	Y41	Z41	X42	Y42	Z42	X43	Y43	Z43	X44	Y44	Z44	X45	Y45	Z45	X46	Y46	Z46	X47	Y47	Z47	X48	Y48	Z48	X49	Y49	Z49	X50	Y50	Z50	X51	Y51	Z51	X52	Y52	Z52	X53	Y53	Z53	X54	Y54	Z54	X55	Y55	Z55	X56	Y56	Z56	X57	Y57	Z57	X58	Y58	Z58	X59	Y59	Z59	X60	Y60	Z60	X61	Y61	Z61	X62	Y62	Z62	X63	Y63	Z63	X64	Y64	Z64	X65	Y65	Z65	X66	Y66	Z66	X67	Y67	Z67	X68	Y68	Z68	X69	Y69	Z69	X70	Y70	Z70	X71	Y71	Z71	X72	Y72	Z72	X73	Y73	Z73	X74	Y74	Z74	X75	Y75	Z75	X76	Y76	Z76	X77	Y77	Z77	X78	Y78	Z78	X79	Y79	Z79	X80	Y80	Z80	X81	Y81	Z81	X82	Y82	Z82	X83	Y83	Z83	X84	Y84	Z84	X85	Y85	Z85	X86	Y86	Z86	X87	Y87	Z87	X88	Y88	Z88	X89	Y89	Z89	X90	Y90	Z90	X91	Y91	Z91	X92	Y92	Z92	X93	Y93	Z93	X94	Y94	Z94	X95	Y95	Z95	X96	Y96	Z96	X97	Y97	Z97	X98	Y98	Z98	X99	Y99	Z99	X100	Y100	Z100	X101	Y101	Z101	X102	Y102	Z102	X103	Y103	Z103	X104	Y104	Z104	

57	0.3733333333333334	-1133.674682617188	1440.426879882812	-384.2592468261718	-994.6753540039062	1420.724609375	-364.1586608886718	-1140.964721679688	1441.113159179688	-500.263214111328	-988.436767578125	1420.572143554688	-512.8825683593749	-964.7698974609375	1274.638305664062	-444.1314086914062	-914.51123046875	1095.69580078125	-446.2188110351562	-1095.463500976562	1212.424072265625	-428.3292236328124	-1127.656005859375	1159.267333984375	-423.9000244140624	-933.58837890625	1178.167846679688	-543.1049194335936	-1037.72607421875	1262.749145507812	-312.4113464355468	-975.5012817382812	1045.816772460938	-219.2813262939453	-965.3950805664062	972.227294921875	-190.9500885009765	-979.7745361328125	889.757080078125	-146.8727722167968	-1023.32177734375	769.6307373046875	-90.6010360717773	-1081.426025390625	775.469970703125	-124.9625930786132	-1110.152099609375	717.567138671875	-78.44338226318355	-1061.656982421875	1251.660278320312	-560.3529052734374	-1053.521606445312	1078.081420898438	-650.5299072265624	-1032.188720703125	959.4385375976562	-704.8569946289061	-1093.886596679688	831.4429321289062	-758.0266723632812	-1106.207885742188	751.5119018554688	-778.328857421875	-1148.718627929688	747.6915283203125	-726.1043701171875	-1190.744995117188	701.4266967773438	-771.832275390625	-915.2464599609375	875.5927124023438	-431.1775512695312	-1070.88720703125	870.8402099609375	-279.1224060058593	-1123.509399414062	878.9362182617188	-521.998046875	-1127.023315429688	586.3381958007812	-244.1451568603515	-1078.226928710938	474.5754089355469	-232.230712890625	-1202.057861328125	531.9418334960938	-277.1607666015624	-1032.87890625	217.2423095703125	-282.8193664550781	-950.18701171875	148.2585601806641	-342.1801147460938	-1062.23974609375	131.9574127197266	-254.5033874511719	-973.5663452148438	41.72122192382815	-367.721923828125	-1083.31396484375	41.39055252075197	-262.3922729492188	-1132.126831054688	607.9722900390625	-593.1907958984375	-1055.389282226562	509.9631652832032	-587.0912475585938	-1197.232421875	534.8223876953125	-583.2769775390625	-1088.603759765625	266.7814636230469	-587.6153564453125	-981.3734741210938	216.8336639404297	-562.6644287109375	-1116.5390625	176.588623046875	-582.652587890625	-981.7987670898438	44.91666793823245	-500.2733154296875	-1123.36474609375	41.72431182861332	-570.6051025390625	-1147.392456054688	433.2496032714844	-268.6977233886719	-1163.158813476562	421.7906799316406	-368.1803283691406	-994.208251953125	49.61894607543947	-304.6915283203125	-1044.770141601562	47.21725082397463	-356.9154968261719	-1164.105712890625	424.7230224609376	-466.6682739257812	-1164.17626953125	440.1756896972657	-569.248779296875	-1062.639404296875	52.91444396972659	-490.7891540527344	-1018.999267578125	47.5625038146973	-552.3297729492188	-983.806396484375	875.5075073242188	-425.1075134277343	-989.4760131835938	875.4765014648438	-423.8801574707031	-982.5786743164062	875.318603515625	-419.4410400390624	-983.7094116210938	933.4860229492188	-423.1957092285156	-1155.275634765625	427.5201416015625	-318.4390258789062	-1164.140991210938	432.4493713378907	-517.95849609375	-1019.489196777344	48.41809844970705	-330.8035278320312	-1040.8193359375	50.23847579956058	-521.5594482421875	-1044.770141601562	47.21725082397463	-356.9154968261719	-1062.639404296875	52.91444396972659	-490.7891540527344	-1083.863159179688	612.0244750976562	-225.9892272949218	-1116.336791992188	624.5294799804688	-603.4073486328125	-1008.794555664062	244.1720123291016	-242.4723052978515	-1039.074951171875	243.6969451904297	-613.8712768554688	0	0	0	0	0	0	0	0	0	0	0	0	-1043.690185546875	783.0814819335938	-355.6588439941406	-1067.705810546875	786.0397338867188	-469.1278076171874	-0.09603653848171234	-12.22152805328369	1.888401269912719	-0.09603653848171234	12.22152805328369	-1.888401269912719	0.1759590953588486	-43.84768295288086	-13.10043811798096	1.327469944953918	-26.41250991821289	-8.936753273010256	18.53981018066406	5.659115791320801	3.722992658615113	13.58205509185791	-10.1481990814209	8.804506301879883	37.76538467407227	-33.90076446533203	-2.280546426773074	33.11499404907227	-30.78269195556641	-7.088332176208498	15.21858310699463	-2.53560471534729	-1.260592341423035	14.61285209655762	5.333775520324707	0.4553077816963199	7.205944333935196e-16	-3.180554718589511e-15	3.534639901530225e-15	-1.789061910092591e-15	1.590277359294755e-15	-1.018771418408951e-15	15.04722595214844	0	0	14.52352142333984	0	0	-12.3209753036499	7.834171295166016	0.3471550345420842	-12.3209753036499	-7.834171295166016	-0.3471550345420842	4.246724128723145	5.885318756103516	-2.95367956161499	4.246724128723145	-5.885318756103516	2.95367956161499	-9.449333190917969	-11.83851432800293	-19.1143741607666	38.44815826416016	-1.04004142537778e-12	1.590277359294691e-15	16.09679985046387	128.7548980712891	12.73701095581055	-8.174415588378906	0.4236935377120987	-24.57244300842285	36.29620742797852	4.868820194542068e-32	-7.951386796473776e-16	19.25895309448242	132.6333618164062	0.2307689636945806	4.450819969177246	6.393646240234375	0.5763307809829716	4.450819969177246	-6.393646240234375	-0.5763307809829716	7.857487201690674	-1.456211566925049	-0.0833390951156617	7.857487201690674	1.456211566925049	0.0833390951156617	0	0	0	0	0	0	0	0	0	0	0	0	0	0	0	0	0	0	
58	0.38	-1133.807983398438	1440.3857421875	-384.3290405273436	-994.7954711914062	1420.701171875	-364.2039184570311	-1141.082397460938	1441.087646484375	-500.3327026367186	-988.5155639648438	1420.576538085938	-512.9227905273436	-964.8682861328125	1274.654541015625	-444.1944274902343	-914.520263671875	1095.732421875	-446.2563476562499	-1095.531372070312	1212.379150390625	-428.3930664062499	-1127.688232421875	1159.209838867188	-423.9659118652343	-933.6170043945312	1178.185302734375	-543.1480712890624	-1037.840698242188	1262.745971679688	-312.4832153320312	-975.556396484375	1045.863525390625	-219.2850952148437	-965.4160766601562	972.2901000976562	-190.9459228515624	-979.768798828125	889.8291015625	-146.8528137207031	-1023.26513671875	769.6967163085938	-90.55467987060543	-1081.382568359375	775.4730834960938	-125.0086898803711	-1110.096923828125	717.5479125976562	-78.51073455810543	-1061.697265625	1251.644287109375	-560.4130859374999	-1053.578979492188	1078.057495117188	-650.5715332031249	-1032.227783203125	959.4117431640625	-704.8993530273436	-1093.927124023438	831.4114379882812	-758.0614624023438	-1106.218872070312	751.4886474609375	-778.3359375	-1148.742065429688	747.657958984375	-726.1199951171875	-1190.76416015625	701.3781127929688	-771.8323974609375	-915.199951171875	875.5889282226562	-431.2098693847656	-1070.8466796875	870.8583374023438	-279.1583557128906	-1123.447143554688	878.9182739257812	-522.0429077148438	-1126.985229492188	586.3477783203125	-244.1695251464843	-1078.194702148438	474.5856018066406	-232.2502136230468	-1202.0244140625	531.9515991210938	-277.1818847656249	-1032.861450195312	217.2542724609375	-282.8385620117188	-950.181640625	148.2608032226563	-342.1965026855469	-1062.237670898438	131.9737091064453	-254.5110626220703	-973.5774536132812	41.72191619873049	-367.7291870117188	-1083.315185546875	41.38960647583009	-262.4004821777344	-1132.119995117188	607.95947265625	-593.1880493164062	-1055.390258789062	509.9432373046876	-587.0958862304688	-1197.23095703125	534.8212890625	-583.2464599609375	-1088.611938476562	266.7770385742188	-587.6106567382812	-981.3871459960938	216.8265380859375	-562.6768188476562	-1116.563598632812	176.584945678711	-582.6292114257812	-981.7940063476562	44.91871261596683	-500.275634765625	-1123.37548828125	41.72675323486332	-570.5931396484375	-1147.449951171875	433.2916870117188	-268.6587829589844	-1163.14306640625	421.8054809570312	-368.2063293457031	-994.2036743164062	49.62167739868166	-304.6917114257812	-1044.771484375	47.21797180175783	-356.9206237792969	-1164.081787109375	424.7291870117188	-466.6469116210938	-1164.19140625	440.1668701171876	-569.2244873046875	-1062.640869140625	52.91287231445315	-490.7798461914062	-1018.998291015625	47.56338882446293	-552.3267211914062	-983.7527465820312	875.5042724609375	-425.1375122070312	-989.4224853515625	875.4735107421875	-423.9106750488281	-982.5255737304688	875.3162841796875	-419.4709167480468	-983.65576171875	933.483154296875	-423.2349853515624	-1155.296508789062	427.548583984375	-318.4325561523438	-1164.136596679688	432.4480285644532	-517.9356689453125	-1019.487609863281	48.41982650756838	-330.80615234375	-1040.819580078125	50.2381286621094	-521.5532836914062	-1044.771484375	47.21797180175783	-356.9206237792969	-1062.640869140625	52.91287231445315	-490.7798461914062	-1083.938232421875	612.0772705078125	-225.98583984375	-1116.344482421875	624.5201416015625	-603.4082641601562	-1008.796569824219	244.188720703125	-242.464859008789	-1039.07470703125	243.6990661621094	-613.8572387695312	0	0	0	0	0	0	0	0	0	0	0	0	-1043.642700195312	783.08837890625	-355.6806945800781	-1067.647827148438	786.0296630859375	-469.1523132324218	-0.09574452787637711	-12.21623516082764	1.879903674125671	-0.09574452787637711	12.21623516082764	-1.879903674125671	0.1782994270324707	-43.84412002563477	-13.09824943542481	1.325224995613098	-26.4063549041748	-8.938224792480471	18.5494499206543	5.700911998748779	3.718631267547608	13.59150314331055	-10.12064361572266	8.80598258972168	37.77718353271484	-33.9379997253418	-2.313668727874758	33.12051010131836	-30.80238342285156	-7.090382575988771	15.21969509124756	-2.531253576278687	-1.259508490562439	14.61421298980713	5.338914394378662	0.4566936492919925	7.454425287130287e-17	1.590277359294755e-15	3.137070588176316e-15	1.987846699118444e-16	-7.607531857873208e-33	1.242404236579864e-16	15.05041027069092	0	0	14.52343082427979	0	0	-12.34142875671387	7.842341423034668	0.3610138297080999	-12.34142875671387	-7.842341423034668	-0.3610138297080999	4.277621746063232	5.885173797607422	-2.954005002975463	4.277621746063232	-5.885173797607422	2.954005002975463	-9.440211296081543	-11.82205295562744	-19.12330627441406	38.44599914550781	-2.754360324888627e-12	1.590277359294587e-15	16.08819198608398	128.7943572998047	12.77477359771729	-8.142292022705078	0.4232661426067367	-24.57638359069824	36.29182815551758	-1.455898878018058e-12	-3.180554718589599e-15	19.25637817382812	132.6241607666016	0.2345946729183278	4.481640338897705	6.389527797698975	0.5820936560630803	4.481640338897705	-6.389527797698975	-0.5820936560630803	7.84662389755249	-1.466455459594727	-0.09438679367303857	7.84662389755249	1.466455459594727	0.09438679367303857	0	0	0	0	0	0	0	0	0	0	0	0	0	0	0	0	0	0	
59	0.3866666666666667	-1133.94140625	1440.344970703125	-384.4005126953124	-994.9161376953125	1420.68017578125	-364.2501831054686	-1141.196044921875	1441.060791015625	-500.4030761718749	-988.6036376953125	1420.587646484375	-512.9664306640624	-964.9695434570312	1274.668823242188	-444.2601928710937	-914.531005859375	1095.768676757812	-446.2912597656249	-1095.59375	1212.336059570312	-428.4556884765624	-1127.720336914062	1159.144897460938	-424.0317077636718	-933.64013671875	1178.201782226562	-543.1892700195311	-1037.953369140625	1262.742919921875	-312.5519409179687	-975.6132202148438	1045.907592773438	-219.2897338867187	-965.4345703125	972.3467407226562	-190.9478912353515	-979.7685546875	889.8978881835938	-146.8414306640624	-1023.224060058594	769.74755859375	-90.54158020019527	-1081.342041015625	775.4749755859375	-125.0552444458007	-1110.051025390625	717.5340576171875	-78.57437133789058	-1061.738525390625	1251.626342773438	-560.4739379882811	-1053.634155273438	1078.030883789062	-650.6146850585936	-1032.271728515625	959.3817749023438	-704.9448242187499	-1093.971801757812	831.3812255859375	-758.0979614257812	-1106.239990234375	751.4666748046875	-778.34423828125	-1148.764526367188	747.6209716796875	-726.139892578125	-1190.784423828125	701.3245239257812	-771.8400268554688	-915.1547241210938	875.5775756835938	-431.2424316406249	-1070.802734375	870.87158203125	-279.1956787109374	-1123.384033203125	878.8934936523438	-522.0894775390625	-1126.94873046875	586.3552856445312	-244.195571899414	-1078.165771484375	474.5914916992188	-232.2696685791015	-1201.993896484375	531.96044921875	-277.2066040039062	-1032.845947265625	217.2635192871094	-282.8541259765625	-950.1771850585938	148.2616729736328	-342.2106323242188	-1062.234008789062	131.9853210449219	-254.5213317871094	-973.5902099609375	41.72001266479494	-367.7382507324219	-1083.314697265625	41.38426971435548	-262.4099426269531	-1132.108520507812	607.9456787109375	-593.1845092773438	-1055.392944335938	509.9200744628907	-587.0972900390625	-1197.225463867188	534.81591796875	-583.223388671875	-1088.618286132812	266.7707824707032	-587.6068725585938	-981.3963623046875	216.822494506836	-562.6885986328125	-1116.590698242188	176.5801391601563	-582.6066284179688	-981.7883911132812	44.9206237792969	-500.2782287597656	-1123.383422851562	41.72882843017582	-570.5797729492188	-1147.529418945312	433.3360900878906	-268.6094360351562	-1163.090087890625	421.8078002929688	-368.2128295898438	-994.1983032226562	49.62425613403322	-304.6903991699219	-1044.771362304688	47.21850204467776	-356.9246520996094	-1164.054809570312	424.7294921875001	-466.6252746582031	-1164.206176757812	440.1558227539063	-569.2044677734375	-1062.641723632812	52.90954208374026	-490.7710266113281	-1018.9970703125	47.56253433227543	-552.3245239257812	-983.6972045898438	875.4940795898438	-425.1702575683593	-989.3670043945312	875.4635009765625	-423.9438476562499	-982.470458984375	875.306884765625	-419.5035095214843	-983.6001586914062	933.4732055664062	-423.2760314941406	-1155.309814453125	427.5719604492188	-318.4111328125	-1164.130493164062	432.4426574707032	-517.9149169921875	-1019.48486328125	48.42137908935549	-330.8075256347656	-1040.819458007812	50.23603820800784	-521.5477905273438	-1044.771362304688	47.21850204467776	-356.9246520996094	-1062.641723632812	52.90954208374026	-490.7710266113281	-1084.069091796875	612.1497802734375	-225.969009399414	-1116.354248046875	624.5066528320312	-603.4097900390625	-1008.79541015625	244.1987915039063	-242.4503479003906	-1039.07421875	243.6977081298828	-613.84423828125	0	0	0	0	0	0	0	0	0	0	0	0	-1043.593383789062	783.0894165039062	-355.7037353515624	-1067.589111328125	786.0128784179688	-469.1777954101562	-0.09588612616062164	-12.21151828765869	1.870849251747131	-0.09588612616062164	12.21151828765869	-1.870849251747131	0.1841748952865601	-43.83990859985352	-13.09132671356202	1.322224497795105	-26.39988899230957	-8.939818382263185	18.55831909179688	5.776628017425537	3.716270446777344	13.60027027130127	-10.09169769287109	8.808234214782715	37.78708267211914	-33.99946975708008	-2.371435880661013	33.1257438659668	-30.8231315612793	-7.093813896179201	15.21939849853516	-2.525954246520996	-1.258045077323914	14.61630725860596	5.343920230865479	0.4580692946910861	-1.913302373455247e-15	-3.18055471858951e-15	-1.424416343881983e-14	-1.987846699118444e-16	-8.155273542216819e-31	1.331857242087243e-14	15.05332565307617	0	0	14.52332019805908	0	0	-12.3591423034668	7.850804805755615	0.3764283955097203	-12.3591423034668	-7.850804805755615	-0.3764283955097203	4.307700634002686	5.885209560394287	-2.954740285873413	4.307700634002686	-5.885209560394287	2.954740285873413	-9.432468414306641	-11.80159091949463	-19.12936782836914	38.44709777832031	1.098881619379655e-12	-2.385416091881624e-15	16.08475494384766	128.8129577636719	12.79462337493897	-8.11092472076416	0.4237177968025223	-24.58195877075195	36.28701400756836	-2.710627729218817e-12	1.19270804594068e-15	19.24816703796387	132.620849609375	0.2360248714685521	4.51127815246582	6.385880470275879	0.5888814926147465	4.51127815246582	-6.385880470275879	-0.5888814926147465	7.834159374237061	-1.476409316062927	-0.1058508679270745	7.834159374237061	1.476409316062927	0.1058508679270745	0	0	0	0	0	0	0	0	0	0	0	0	0	0	0	0	0	0	
60	0.3933333333333334	-1134.074584960938	1440.305541992188	-384.4733581542968	-995.0382690429688	1420.66259765625	-364.2976989746093	-1141.307250976562	1441.033325195312	-500.475616455078	-988.7059326171875	1420.603515625	-513.0159912109374	-965.0679321289062	1274.682373046875	-444.3265686035156	-914.542236328125	1095.8046875	-446.3232727050781	-1095.654541015625	1212.29638671875	-428.5195617675781	-1127.751831054688	1159.074340820312	-424.1009216308593	-933.65869140625	1178.221801757812	-543.2277832031249	-1038.06396484375	1262.7392578125	-312.6187133789062	-975.6698608398438	1045.947387695312	-219.2997589111328	-965.4544677734375	972.39453125	-190.9634094238281	-979.7806396484375	889.94970703125	-146.8511352539062	-1023.204284667969	769.7781372070312	-90.57056427001949	-1081.306396484375	775.4755859375	-125.103042602539	-1110.013671875	717.5263061523438	-78.63246154785152	-1061.786865234375	1251.60791015625	-560.5360107421874	-1053.686645507812	1078.001953125	-650.6611328124999	-1032.31982421875	959.347900390625	-704.9924316406249	-1094.012939453125	831.3515625	-758.1312255859375	-1106.2783203125	751.4328002929688	-778.361572265625	-1148.78515625	747.5802001953125	-726.1644897460938	-1190.80712890625	701.26904296875	-771.8568725585938	-915.1092529296875	875.55908203125	-431.2743835449218	-1070.755493164062	870.8779296875	-279.2351684570312	-1123.320556640625	878.8623657226562	-522.13720703125	-1126.9140625	586.3611450195312	-244.223648071289	-1078.136352539062	474.5928955078125	-232.2909545898437	-1201.965087890625	531.9699096679688	-277.2349243164062	-1032.830444335938	217.2696075439453	-282.8674621582031	-950.1719360351562	148.2610626220703	-342.2238464355469	-1062.227172851562	131.9919586181641	-254.5338897705078	-973.6013793945312	41.7154006958008	-367.7486572265625	-1083.31298828125	41.37854385375978	-262.4181823730469	-1132.091064453125	607.93115234375	-593.1823120117188	-1055.396484375	509.8930053710938	-587.09619140625	-1197.215576171875	534.805908203125	-583.2105712890625	-1088.623657226562	266.7628479003907	-587.6036987304688	-981.3965454101562	216.8243103027344	-562.6949462890625	-1116.6171875	176.57373046875	-582.5857543945312	-981.7821655273438	44.9221115112305	-500.2809753417969	-1123.387939453125	41.73000335693363	-570.5665283203125	-1147.562622070312	433.3598937988281	-268.5910949707031	-1162.999267578125	421.7955627441406	-368.1957702636719	-994.1942749023438	49.62571716308596	-304.6908264160156	-1044.769165039062	47.21921157836916	-356.9276123046875	-1164.023315429688	424.7232055664063	-466.607177734375	-1164.219360351562	440.1439819335938	-569.1912231445312	-1062.641357421875	52.90425491333011	-490.7637939453125	-1018.995544433594	47.56020355224613	-552.3230590820312	-983.64013671875	875.4768676757812	-425.2060852050781	-989.31005859375	875.446533203125	-423.9801025390624	-982.413818359375	875.2905883789062	-419.5392150878906	-983.5427856445312	933.456298828125	-423.3212890624999	-1155.281005859375	427.5777282714844	-318.3934326171875	-1164.121337890625	432.4335937500001	-517.8992309570312	-1019.481750488281	48.42246246337893	-330.8092041015625	-1040.818481445312	50.23222732543948	-521.54345703125	-1044.769165039062	47.21921157836916	-356.9276123046875	-1062.641357421875	52.90425491333011	-490.7637939453125	-1084.160400390625	612.2053833007812	-225.9581909179687	-1116.366088867188	624.4900512695312	-603.4137573242188	-1008.7783203125	244.1934356689453	-242.4441528320312	-1039.072265625	243.6924285888672	-613.833740234375	0	0	0	0	0	0	0	0	0	0	0	0	-1043.541870117188	783.0836791992188	-355.7292785644531	-1067.529663085938	785.9895629882812	-469.2054443359374	-0.09618683159351349	-12.20751571655273	1.861896753311157	-0.09618683159351349	12.20751571655273	-1.861896753311157	0.189719945192337	-43.83694458007812	-13.08159160614014	1.318810224533081	-26.39373779296875	-8.941090583801271	18.56088447570801	5.843271732330322	3.714993238449097	13.6084566116333	-10.06121826171875	8.81098461151123	37.78618240356445	-34.05341720581055	-2.424267053604128	33.13032913208008	-30.84542465209961	-7.099518775939943	15.21546077728271	-2.521102428436279	-1.256387948989868	14.61878395080566	5.348564147949219	0.4593631327152256	3.727212577390695e-16	1.590277359294754e-15	1.386523054437141e-14	-3.975693398236888e-16	1.590277359294755e-15	4.67143964366667e-15	15.05127811431885	0	0	14.52303791046143	0	0	-12.37468528747559	7.85743236541748	0.3918968141078954	-12.37468528747559	-7.85743236541748	-0.3918968141078954	4.336728572845459	5.887124061584473	-2.955672740936279	4.336728572845459	-5.887124061584473	2.955672740936279	-9.425779342651367	-11.78166961669922	-19.13168334960938	38.45073699951172	2.385416083411362e-12	-1.590277359294609e-15	16.08540534973145	128.8084716796875	12.79311180114747	-8.080406188964844	0.4240266978740707	-24.58793640136719	36.28204727172852	8.937358774059601e-13	2.782985405235656e-15	19.23876762390137	132.6253204345703	0.2355699986219487	4.539683818817139	6.381075859069824	0.5959782004356389	4.539683818817139	-6.381075859069824	-0.5959782004356389	7.820757865905762	-1.485751628875732	-0.1168701276183129	7.820757865905762	1.485751628875732	0.1168701276183129	0	0	0	0	0	0	0	0	0	0	0	0	0	0	0	0	0	0	
